<svg xmlns="http://www.w3.org/2000/svg" viewBox="0 0 223.97 159.7"><defs><style>.cls-1{fill:#0064aa;}</style></defs><g id="Capa_2" data-name="Capa 2"><g id="Object"><rect class="cls-1" x="30.75" y="48.76" width="30.35" height="30.35" rx="15.17"/><path class="cls-1" d="M157.9,43.91A44,44,0,0,0,114,0h0A44,44,0,0,0,70.08,43.91h0v64.17s87.81-9.78,87.82-64.16Z"/><path class="cls-1" d="M0,129.14H0A30.64,30.64,0,0,0,30.55,159.7h0A30.64,30.64,0,0,0,61.1,129.15h0V84.5S0,91.31,0,129.14Zm30.55,8a8,8,0,1,1,8-8A8,8,0,0,1,30.55,137.17Z"/><path class="cls-1" d="M75.81,140.64A9.77,9.77,0,0,1,72,137a10.2,10.2,0,0,1-1.38-5.28,10,10,0,0,1,1.4-5.28,9.9,9.9,0,0,1,3.84-3.67,11.25,11.25,0,0,1,5.46-1.32,11.43,11.43,0,0,1,4.48.85,9.06,9.06,0,0,1,3.42,2.49L86.81,127a7,7,0,0,0-5.34-2.34,7.46,7.46,0,0,0-3.68.9,6.49,6.49,0,0,0-2.54,2.5,7.66,7.66,0,0,0,0,7.24,6.49,6.49,0,0,0,2.54,2.5,7.46,7.46,0,0,0,3.68.9,7,7,0,0,0,5.34-2.37l2.39,2.28a9.16,9.16,0,0,1-3.44,2.49,11.48,11.48,0,0,1-4.49.85A11.15,11.15,0,0,1,75.81,140.64Z"/><path class="cls-1" d="M96.17,140.64A9.83,9.83,0,0,1,92.31,137a10.67,10.67,0,0,1,0-10.53,10,10,0,0,1,3.86-3.68,12.14,12.14,0,0,1,11,0,9.86,9.86,0,0,1,3.85,3.67A10.66,10.66,0,0,1,111,137a9.76,9.76,0,0,1-3.85,3.66,12.06,12.06,0,0,1-11,0Zm9.1-2.82a6.58,6.58,0,0,0,2.51-2.51,7.62,7.62,0,0,0,0-7.22,6.58,6.58,0,0,0-2.51-2.51,7.63,7.63,0,0,0-7.19,0,6.51,6.51,0,0,0-2.51,2.51,7.54,7.54,0,0,0,0,7.22,6.51,6.51,0,0,0,2.51,2.51,7.63,7.63,0,0,0,7.19,0Z"/><path class="cls-1" d="M134.72,141.69l0-13.24-6.57,11h-1.65l-6.56-10.78v13.07h-3.54v-20h3L127.35,135l7.79-13.24h3.06l0,20Z"/><path class="cls-1" d="M156.36,122.57a6.58,6.58,0,0,1,2.95,2.45,7.49,7.49,0,0,1,0,7.58,6.56,6.56,0,0,1-2.95,2.47,11.08,11.08,0,0,1-4.52.85h-4.51v5.77h-3.71v-20h8.22A11.08,11.08,0,0,1,156.36,122.57Zm-1,9.19a4.06,4.06,0,0,0,0-5.88,5.65,5.65,0,0,0-3.68-1h-4.33v7.93h4.33A5.7,5.7,0,0,0,155.34,131.76Z"/><path class="cls-1" d="M176,137.06H166l-2,4.63h-3.83l9-20h3.65l9,20H178Zm-1.22-2.91L171,125.42l-3.74,8.73Z"/><path class="cls-1" d="M202.17,121.71v20h-3l-11-13.53v13.53h-3.68v-20h3.05l11,13.53V121.71Z"/><path class="cls-1" d="M216.15,134.64v7.05h-3.71v-7l-7.85-13h4l5.85,9.73,5.91-9.73H224Z"/></g></g></svg>