<?xml version="1.0" encoding="utf-8"?>
<!-- Generator: Adobe Illustrator 16.0.0, SVG Export Plug-In . SVG Version: 6.00 Build 0)  -->
<!DOCTYPE svg PUBLIC "-//W3C//DTD SVG 1.1//EN" "http://www.w3.org/Graphics/SVG/1.1/DTD/svg11.dtd">
<svg version="1.1" id="Capa_1" xmlns="http://www.w3.org/2000/svg" xmlns:xlink="http://www.w3.org/1999/xlink" x="0px" y="0px"
	 width="633.393px" height="200.963px" viewBox="0 0 633.393 200.963" enable-background="new 0 0 633.393 200.963"
	 xml:space="preserve">
<g>
	<path fill-rule="evenodd" clip-rule="evenodd" fill="#99C840" d="M178.183,77.223c-0.112,9.703-3.563,17.49-10.13,24.022
		c-14.406,14.325-28.716,28.747-43.139,43.055c-1.457,1.445-1.251,2.139,0.09,3.45c6.634,6.489,13.135,13.113,19.746,19.627
		c1.061,1.044,1.15,1.562,0.013,2.675c-7.393,7.243-14.611,14.664-22.038,21.87c-12.444,12.077-32.222,12.063-44.563-0.094
		c-12.918-12.728-25.679-25.617-38.504-38.439c-10.003-9.999-20.027-19.976-29.994-30.012C-3.194,110.429-3.236,90.53,9.627,77.63
		C32.25,54.941,54.902,32.281,77.605,9.673c13.012-12.958,32.887-12.872,45.898,0.108c15.339,15.303,30.694,30.592,45.931,45.996
		C175.367,61.776,178.05,69.241,178.183,77.223z M145.643,77.937c-0.053-0.742-0.571-1.021-0.942-1.393
		c-14.354-14.372-28.725-28.729-43.049-43.131c-1.013-1.02-1.532-0.789-2.408,0.088C77.483,55.306,55.71,77.101,33.887,98.844
		c-1.329,1.324-1.286,2.008,0.019,3.308c21.778,21.694,43.512,43.435,65.216,65.203c1.062,1.064,1.621,1.129,2.707,0.026
		c6.604-6.706,13.263-13.357,19.97-19.961c1.124-1.106,1.173-1.711,0.012-2.854c-6.801-6.695-13.499-13.496-20.277-20.217
		c-0.872-0.862-0.981-1.347-0.027-2.235c2.129-1.982,4.132-4.102,6.191-6.159c12.305-12.306,24.611-24.608,36.914-36.914
		C144.985,78.667,145.335,78.268,145.643,77.937z"/>
	<path fill-rule="evenodd" clip-rule="evenodd" fill="#4D4D4D" d="M220.482,100.659c-0.001-18.963,0.02-37.926-0.037-56.888
		c-0.005-1.681,0.253-2.291,2.162-2.279c16.118,0.096,32.238-0.107,48.354,0.114c12.667,0.174,23.52,4.728,31.586,14.841
		c14.264,17.885,12.144,49.41-10.813,62.552c-6.169,3.531-12.862,5.347-19.939,5.448c-9.818,0.141-19.64,0.092-29.459,0.033
		c-1.569-0.009-2.046,0.362-2.034,1.997c0.078,10.564,0,21.13,0.082,31.693c0.013,1.656-0.494,2.018-2.045,1.992
		c-5.213-0.091-10.431-0.111-15.643,0.01c-1.765,0.041-2.281-0.388-2.262-2.221c0.102-9.549,0.048-19.098,0.048-28.647
		C220.482,119.757,220.482,110.207,220.482,100.659z M239.973,82.813c0,7.584,0.031,15.168-0.028,22.751
		c-0.01,1.322,0.347,1.752,1.698,1.744c9.344-0.054,18.689,0.069,28.032-0.063c10.091-0.146,18.005-5.916,21.31-15.258
		c1.402-3.966,1.664-8.058,1.353-12.215c-0.903-12.04-10.346-20.997-22.395-21.102c-9.411-0.082-18.824,0.013-28.235-0.059
		c-1.49-0.011-1.774,0.495-1.763,1.856C240.005,67.915,239.973,75.364,239.973,82.813z"/>
	<path fill-rule="evenodd" clip-rule="evenodd" fill="#4D4D4D" d="M429.77,144.612c-2.262,3.739-4.768,7.093-8.086,9.834
		c-13.285,10.973-39.041,9.523-49.98-9.231c-8.131-13.938-9.451-28.853-3.59-43.924c5.07-13.041,15.409-20.287,28.795-23.122
		c16.18-3.426,31.716-0.665,46.761,5.723c1.193,0.508,1.072,1.353,1.072,2.291c-0.006,15.845-0.007,31.69-0.004,47.536
		c0,2.167-0.021,4.336,0.052,6.5c0.167,4.983,2.076,6.908,6.99,6.898c1.295-0.003,1.794,0.224,1.748,1.629
		c-0.103,3.111-0.079,6.23-0.011,9.343c0.027,1.188-0.335,1.634-1.554,1.793c-4.045,0.526-8.075,0.878-12.113,0.014
		c-6.36-1.363-9.816-5.455-10.073-11.936C429.731,146.845,429.77,145.727,429.77,144.612z M426.892,108.57
		c0-3.926-0.078-7.854,0.041-11.776c0.044-1.431-0.495-1.988-1.745-2.442c-6.677-2.42-13.552-3.3-20.556-2.29
		c-9.992,1.438-16.931,6.831-19.922,16.655c-2.122,6.969-1.997,14.006,0.21,20.972c4.386,13.834,16.763,16.973,26.625,14.313
		c8.078-2.177,12.005-8.266,14.091-15.854C427.404,121.717,426.798,115.117,426.892,108.57z"/>
	<path fill-rule="evenodd" clip-rule="evenodd" fill="#4D4D4D" d="M573.147,93.567c-0.734,0-1.449,0-2.163,0
		c-11.445,0-22.892-0.044-34.336,0.045c-1.75,0.015-2.118-0.496-2.063-2.137c0.126-3.789,0.08-7.585,0.017-11.377
		c-0.019-1.162,0.177-1.646,1.521-1.644c20.859,0.046,41.718,0.03,62.576,0.039c1.479,0.001,2.009,1.184,1.183,2.804
		c-0.52,1.02-1.235,1.938-1.856,2.906c-12.505,19.47-24.942,38.985-38.235,57.937c-0.365,0.521-1.167,1.055-0.789,1.707
		c0.354,0.609,1.241,0.266,1.884,0.266c12.394,0.018,24.787,0.042,37.18-0.021c1.583-0.009,2.074,0.381,2.024,2.007
		c-0.122,3.991-0.13,7.993,0.002,11.984c0.058,1.736-0.515,2.09-2.157,2.085c-20.927-0.056-41.853-0.031-62.778-0.058
		c-0.969-0.001-2.49,0.547-2.809-0.359c-0.484-1.38-0.56-3.015,0.392-4.472c2.883-4.419,5.745-8.854,8.541-13.329
		c9.898-15.844,20.305-31.349,31.049-46.629C572.655,94.854,573.18,94.45,573.147,93.567z"/>
	<path fill-rule="evenodd" clip-rule="evenodd" fill="#4D4D4D" d="M492.315,113.632c0,5.757-0.008,11.513,0.004,17.269
		c0.004,1.903,0.313,3.771,0.756,5.618c1.913,7.977,7.179,11.85,15.356,11.337c4.081-0.256,8.042-1.09,11.86-2.504
		c1.396-0.517,1.861-0.249,2.022,1.187c0.41,3.63,0.92,7.248,1.376,10.873c0.082,0.647,0.315,1.33-0.679,1.612
		c-9.386,2.661-18.842,4.517-28.592,2.177c-10.905-2.617-16.745-10.023-19.149-20.576c-0.952-4.177-1.225-8.426-1.218-12.703
		c0.019-10.836-0.024-21.67,0.046-32.505c0.009-1.529-0.4-1.926-1.911-1.888c-4.331,0.107-8.668,0.003-13.001,0.063
		c-1.224,0.018-1.818-0.167-1.78-1.62c0.102-3.925,0.099-7.856,0.002-11.781c-0.035-1.437,0.54-1.652,1.781-1.635
		c4.4,0.063,8.804-0.024,13.204,0.056c1.322,0.024,1.712-0.347,1.695-1.681c-0.071-5.552-0.007-11.106-0.05-16.659
		c-0.01-1.124,0.119-1.697,1.498-1.673c5.077,0.086,10.158,0.084,15.236,0.001c1.352-0.022,1.533,0.498,1.522,1.654
		c-0.05,5.553,0.019,11.106-0.053,16.658c-0.017,1.32,0.338,1.711,1.682,1.701c8.193-0.062,16.389,0.014,24.582-0.07
		c1.607-0.017,2.06,0.421,2.011,2.019c-0.117,3.789-0.101,7.585-0.004,11.376c0.034,1.378-0.436,1.666-1.718,1.657
		c-8.195-0.054-16.39,0.021-24.583-0.07c-1.641-0.019-1.996,0.473-1.973,2.027c0.091,6.024,0.037,12.054,0.037,18.081
		C492.29,113.632,492.303,113.632,492.315,113.632z"/>
	<path fill-rule="evenodd" clip-rule="evenodd" fill="#4C4C4C" d="M341.938,88.76c0,14.353-0.005,28.705,0.003,43.059
		c0.002,2.849,0.203,5.681,1.07,8.417c1.317,4.156,3.952,6.267,8.291,6.564c2.159,0.146,4.338,0.214,6.474-0.252
		c1.223-0.266,1.831-0.078,1.87,1.385c0.101,3.788,0.354,7.572,0.536,11.357c0.032,0.658,0.18,1.286-0.87,1.444
		c-6.995,1.042-13.986,1.755-20.922-0.295c-8.003-2.365-11.756-8.381-13.497-16.031c-0.874-3.838-1.254-7.743-1.255-11.679
		c-0.013-29.789-0.003-59.58-0.063-89.369c-0.003-1.588,0.479-1.878,1.937-1.85c4.806,0.092,9.614,0.092,14.42,0.001
		c1.521-0.029,2.045,0.269,2.036,1.954c-0.077,15.098-0.046,30.195-0.046,45.294C341.927,88.76,341.932,88.76,341.938,88.76z"/>
	<path fill-rule="evenodd" clip-rule="evenodd" fill="#4C4C4C" d="M631.538,119.4c-0.001,12.863-0.028,25.727,0.034,38.589
		c0.009,1.624-0.32,2.229-2.087,2.184c-4.938-0.128-9.884-0.085-14.824-0.025c-1.211,0.016-1.625-0.266-1.623-1.56
		c0.038-26.132,0.04-52.265-0.005-78.396c-0.003-1.412,0.493-1.65,1.745-1.636c4.941,0.063,9.886,0.108,14.824-0.021
		c1.709-0.045,1.97,0.571,1.965,2.074C631.517,93.54,631.538,106.47,631.538,119.4z"/>
	<path fill-rule="evenodd" clip-rule="evenodd" fill="#4D4D4D" d="M622.505,63.173c-6.603,0.029-11.266-4.453-11.333-10.896
		c-0.067-6.314,4.522-10.843,11.07-10.924c6.49-0.081,11.125,4.405,11.15,10.792C633.419,58.655,628.987,63.145,622.505,63.173z"/>
</g>
</svg>
